<svg width="48" height="46" viewBox="0 0 128 128" fill="none" xmlns="http://www.w3.org/2000/svg">
  <path d="M64 8C33.1 8 8 33.1 8 64C8 94.9 33.1 120 64 120C94.9 120 120 94.9 120 64C120 33.1 94.9 8 64 8ZM64 116.5C35 116.5 11.5 93 11.5 64C11.5 35 35 11.5 64 11.5C93 11.5 116.5 35 116.5 64C116.5 93 93 116.5 64 116.5Z" fill="#D4A373" stroke="#D4A373" stroke-width="1.5"/>
  <path d="M116.5 64C116.5 93 93 116.5 64 116.5C35 116.5 11.5 93 11.5 64C11.5 35 35 11.5 64 11.5C93 11.5 116.5 35 116.5 64Z" fill="white"/>

  <path d="M48.5 48V88H54V84.5C54 84.5 54.8 80.5 57 80.5H71C73.2 80.5 74 84.5 74 84.5V88H79.5V48H74V51.5C74 51.5 73.2 55.5 71 55.5H57C54.8 55.5 54 51.5 54 51.5V48H48.5Z" fill="#C2410C"/>
  <path d="M57.5 59.5V76.5H70.5V59.5H57.5ZM60.5 73.5V62.5H67.5V73.5H60.5Z" fill="#C2410C"/>
  <path d="M64 56L59 63H69L64 56Z" fill="#C2410C"/>
  <path d="M64 71L59 78H69L64 71Z" fill="#C2410C"/>

  <circle cx="88" cy="80" r="4" fill="#365314"/>

</svg>
